<svg width="18" height="18" viewBox="0 0 18 18" fill="none" xmlns="http://www.w3.org/2000/svg">
<path d="M6.49935 17.3327H11.4993C15.666 17.3327 17.3327 15.666 17.3327 11.4993V6.49935C17.3327 2.33268 15.666 0.666016 11.4993 0.666016H6.49935C2.33268 0.666016 0.666016 2.33268 0.666016 6.49935V11.4993C0.666016 15.666 2.33268 17.3327 6.49935 17.3327Z" stroke="#2B3748" stroke-width="1.2" stroke-linecap="round" stroke-linejoin="round"/>
<path d="M6.50065 7.33333C7.42113 7.33333 8.16732 6.58714 8.16732 5.66667C8.16732 4.74619 7.42113 4 6.50065 4C5.58018 4 4.83398 4.74619 4.83398 5.66667C4.83398 6.58714 5.58018 7.33333 6.50065 7.33333Z" stroke="#2B3748" stroke-width="1.2" stroke-linecap="round" stroke-linejoin="round"/>
<path d="M1.22461 14.7918L5.33294 12.0335C5.99128 11.5918 6.94128 11.6418 7.53294 12.1501L7.80794 12.3918C8.45794 12.9501 9.50794 12.9501 10.1579 12.3918L13.6246 9.4168C14.2746 8.85846 15.3246 8.85846 15.9746 9.4168L17.3329 10.5835" stroke="#2B3748" stroke-width="1.2" stroke-linecap="round" stroke-linejoin="round"/>
</svg>
