<svg width="25" height="25" viewBox="0 0 25 25" fill="none" xmlns="http://www.w3.org/2000/svg">
<path d="M16.4629 13.3375V17.5375C16.4629 21.0375 15.0629 22.4375 11.5629 22.4375H7.36289C3.86289 22.4375 2.46289 21.0375 2.46289 17.5375V13.3375C2.46289 9.8375 3.86289 8.4375 7.36289 8.4375H11.5629C15.0629 8.4375 16.4629 9.8375 16.4629 13.3375Z" stroke="#FAFAFA" stroke-width="1.5" stroke-linecap="round" stroke-linejoin="round"/>
<path d="M22.4629 7.3375V11.5375C22.4629 15.0375 21.0629 16.4375 17.5629 16.4375H16.4629V13.3375C16.4629 9.8375 15.0629 8.4375 11.5629 8.4375H8.46289V7.3375C8.46289 3.8375 9.86289 2.4375 13.3629 2.4375H17.5629C21.0629 2.4375 22.4629 3.8375 22.4629 7.3375Z" stroke="#FAFAFA" stroke-width="1.5" stroke-linecap="round" stroke-linejoin="round"/>
</svg>
