<svg width="28" height="28" viewBox="0 0 28 28" fill="none" xmlns="http://www.w3.org/2000/svg">
<path d="M14.0007 25.6673C20.444 25.6673 25.6673 20.444 25.6673 14.0007C25.6673 7.55733 20.444 2.33398 14.0007 2.33398C7.55733 2.33398 2.33398 7.55733 2.33398 14.0007C2.33398 20.444 7.55733 25.6673 14.0007 25.6673Z" stroke="#010F23" stroke-width="1.5" stroke-linecap="round" stroke-linejoin="round"/>
<path d="M9.33255 3.5H10.4992C8.22422 10.3133 8.22422 17.6867 10.4992 24.5H9.33255" stroke="#010F23" stroke-width="1.5" stroke-linecap="round" stroke-linejoin="round"/>
<path d="M17.5 3.5C19.775 10.3133 19.775 17.6867 17.5 24.5" stroke="#010F23" stroke-width="1.5" stroke-linecap="round" stroke-linejoin="round"/>
<path d="M3.5 18.6667V17.5C10.3133 19.775 17.6867 19.775 24.5 17.5V18.6667" stroke="#010F23" stroke-width="1.5" stroke-linecap="round" stroke-linejoin="round"/>
<path d="M3.5 10.4992C10.3133 8.22422 17.6867 8.22422 24.5 10.4992" stroke="#010F23" stroke-width="1.5" stroke-linecap="round" stroke-linejoin="round"/>
</svg>
