<svg width="76" height="75" viewBox="0 0 76 75" fill="none" xmlns="http://www.w3.org/2000/svg">
<circle cx="38.4375" cy="37.5" r="37" fill="#F3F8FF" stroke="#BABABA"/>
<path d="M28.5371 18.5994C23.5769 18.5994 19.5371 22.6392 19.5371 27.5994V47.3994C19.5371 52.3596 23.5769 56.3994 28.5371 56.3994H48.3371C53.2973 56.3994 57.3371 52.3596 57.3371 47.3994V27.5994C57.3371 22.6392 53.2973 18.5994 48.3371 18.5994H28.5371ZM28.5371 20.3994H48.3371C52.3247 20.3994 55.5371 23.6118 55.5371 27.5994V47.3994C55.5371 51.387 52.3247 54.5994 48.3371 54.5994H28.5371C24.5495 54.5994 21.3371 51.387 21.3371 47.3994V27.5994C21.3371 23.6118 24.5495 20.3994 28.5371 20.3994ZM27.6371 28.4994C26.1566 28.4994 24.9371 29.7189 24.9371 31.1994V43.7994C24.9371 45.2798 26.1566 46.4994 27.6371 46.4994H49.2371C50.7176 46.4994 51.9371 45.2798 51.9371 43.7994V31.1994C51.9371 29.7189 50.7176 28.4994 49.2371 28.4994H27.6371ZM28.0098 30.2994H48.8627L40.8471 38.3027C39.5036 39.644 37.3543 39.6439 36.0113 38.3009L28.0098 30.2994ZM50.1371 31.5703V43.4285L44.1992 37.4994L50.1371 31.5703ZM26.7371 31.572L32.6645 37.4994L26.7371 43.4267V31.572ZM42.9266 38.7703L48.8645 44.6994H28.0098L33.9371 38.772L34.7387 39.5736C36.7689 41.6038 40.0865 41.6053 42.118 39.5771L42.9266 38.7703Z" fill="#808791"/>
</svg>
