<svg width="212" height="133" viewBox="0 0 212 133" fill="none" xmlns="http://www.w3.org/2000/svg">
<path d="M25.0077 108.148C24.8865 108.038 24.854 107.936 24.7436 107.859C17.0824 102.437 16.4887 94.9414 21.0145 85.9945C24.4451 79.2635 30.6184 72.5133 38.8569 65.7742C53.5349 53.6549 71.9753 43.0932 94.0764 34.3081C110.229 27.8733 126.702 22.9776 143.47 20.0771C153.154 18.3973 162.244 17.5421 170.524 17.916C178.971 18.2738 185.508 19.9138 189.868 23.0711C190.409 23.4204 191.029 23.7447 191.648 24.069C197.142 27.0128 199.807 31.048 199.944 36.0411C200.1 42.707 196.21 49.8833 188.931 57.4722C188.36 58.1027 187.71 58.7581 187.228 59.3975C176.626 72.7129 159.707 84.5415 136.574 94.6641C109.44 106.514 82.3598 113.161 55.6799 114.344C44.4169 114.849 34.4636 114.078 26.6012 111.519C12.9914 107.104 9.33683 99.169 14.6353 88.0722C17.9685 81.0365 24.2998 73.9746 32.6745 66.8562C46.0581 55.5239 62.9963 45.3681 82.6014 36.2993C93.3792 31.3224 104.451 26.9976 115.995 23.3426C123.087 21.0745 130.265 19.0771 137.437 17.8653C141.262 17.2016 144.918 16.8157 148.147 16.9766C149.28 17.0249 150.278 17.1908 151.265 17.3228C151.808 17.4102 152.295 17.5902 151.724 18.2207C151.39 18.2527 150.99 18.3435 150.724 18.3167C146.046 17.3877 140.177 18.1081 133.949 19.3165C126.843 20.7314 119.775 22.8053 112.738 25.2427C84.0539 35.2005 59.6455 47.7829 39.7572 62.9492C29.891 70.5074 22.5445 78.1551 18.2957 85.8194C15.0944 91.6563 14.3631 96.8898 16.7468 101.388C18.1237 104.082 20.7042 106.241 24.1765 107.966C24.2869 108.043 24.4752 108.094 24.6527 108.112C24.6744 108.18 24.8302 108.13 25.0077 108.148ZM197.03 37.9431C196.268 38.7837 196.307 39.4428 196.814 39.9524C196.69 40.1038 196.4 40.2712 196.355 40.3977C196.184 40.9374 196.18 41.4611 196.097 42.0097C196.175 41.9848 196.253 41.9599 196.342 41.9688C196.47 41.2937 196.608 40.6524 196.814 39.9524C196.863 39.3022 196.902 38.6182 197.03 37.9431C196.922 37.6046 196.902 37.2751 196.883 36.9455C196.727 36.9954 196.649 37.0203 196.493 37.0701C196.679 37.3837 196.855 37.6634 197.03 37.9431ZM115.6 29.6253C100.025 34.6441 86.4982 40.4256 73.9628 47.1585C61.8625 53.6404 51.5352 60.5626 43.5458 68.0801C38.0066 73.3216 33.9893 78.4868 32.1604 83.5116C30.6043 87.7776 30.7842 91.563 33.2565 94.7271C35.8934 98.1371 41.0736 100.099 48.2064 100.915C60.9523 102.36 74.7285 102.729 89.5351 102.023C96.7998 101.64 104.223 100.945 112.018 99.5334C113.797 99.1881 115.488 98.8339 117.258 98.193C127.504 94.5057 137.242 90.3089 146.464 85.5686C161.438 77.8689 174.054 69.506 183.755 60.3588C184.617 59.5609 185.301 58.7452 185.907 57.9544C188.288 54.6558 190.013 51.455 191.238 48.3023C194.153 40.766 194.376 33.9417 190.793 28.1107C189.665 26.1956 187.734 24.7238 184.599 23.7863C178.408 21.8862 171.009 21.0441 162.314 21.2509C147.122 21.5581 131.107 24.6653 115.6 29.6253ZM78.5387 42.934C78.5279 42.9002 78.4283 42.8574 78.4175 42.8236C77.8157 43.0907 77.2248 43.3916 76.623 43.6587C69.878 47.0099 63.6093 50.5073 57.6825 54.2684C44.7685 62.503 34.517 71.0052 27.8156 79.8644C22.6857 86.6539 20.3245 92.9683 21.7774 98.5852C23.4338 105.107 29.6057 109.364 41.1068 110.946C47.0295 111.738 53.7921 111.664 60.981 111.044C74.8589 109.851 89.1068 106.861 103.71 102.564C105.279 102.099 106.749 101.592 108.307 101.093C107.941 101.024 107.53 101.081 107.119 101.137C103.751 101.618 100.326 102.191 97.0921 102.554C76.8998 104.684 59.1276 104.175 42.812 102.043C40.1278 101.708 38.002 100.97 36.0104 100.114C29.5832 97.2079 27.455 92.7025 28.4114 87.0985C29.4392 80.9121 33.9782 74.4235 41.039 67.7626C49.9246 59.2868 61.7239 51.5954 75.584 44.4387C76.6209 43.9205 77.5798 43.4273 78.5387 42.934ZM174.312 70.5802C174.212 70.5374 174.034 70.5196 173.935 70.4768C160.04 80.4801 143.769 89.2288 124.977 96.5449C106.264 103.836 87.3903 109.014 68.2913 111.877C72.3241 111.595 76.437 111.025 80.6841 110.339C96.5945 107.712 112.332 103.201 127.904 97.1012C143.02 91.1846 156.179 84.2522 167.238 76.126C169.662 74.3059 171.898 72.4341 174.312 70.5802ZM196.759 35.7538C196.681 35.7787 196.681 35.7787 196.759 35.7538C196.725 35.9141 196.757 36.0156 196.8 36.151L196.878 36.1261C196.846 36.0245 196.803 35.8892 196.759 35.7538Z" fill="#FF9900"/>
<path d="M16.9734 67.9316C16.7558 67.9316 16.5599 67.8555 16.3859 67.7032C16.2336 67.5509 16.1574 67.355 16.1574 67.1157V45.9009C16.1574 45.6616 16.2336 45.4658 16.3859 45.3135C16.5599 45.1611 16.7558 45.085 16.9734 45.085H20.0087C20.3351 45.085 20.5744 45.172 20.7267 45.3461C20.9008 45.5202 21.0205 45.6507 21.0858 45.7378L27.0912 56.8021L33.1618 45.7378C33.2054 45.6507 33.3033 45.5202 33.4556 45.3461C33.6297 45.172 33.8799 45.085 34.2063 45.085H37.2416C37.4809 45.085 37.6768 45.1611 37.8291 45.3135C37.9814 45.4658 38.0576 45.6616 38.0576 45.9009V67.1157C38.0576 67.355 37.9814 67.5509 37.8291 67.7032C37.6768 67.8555 37.4809 67.9316 37.2416 67.9316H33.9125C33.6949 67.9316 33.51 67.8555 33.3577 67.7032C33.2054 67.5509 33.1292 67.355 33.1292 67.1157V53.9299L28.9842 61.6978C28.8754 61.8936 28.7339 62.0677 28.5599 62.22C28.3858 62.3723 28.1573 62.4484 27.8745 62.4484H26.3405C26.0576 62.4484 25.8292 62.3723 25.6551 62.22C25.481 62.0677 25.3396 61.8936 25.2308 61.6978L21.0858 53.9299V67.1157C21.0858 67.355 21.0096 67.5509 20.8573 67.7032C20.705 67.8555 20.52 67.9316 20.3024 67.9316H16.9734ZM50.112 68.258C47.6097 68.258 45.6188 67.5617 44.1392 66.1692C42.6814 64.7766 41.9089 62.7531 41.8219 60.0985C41.8219 59.9244 41.8219 59.696 41.8219 59.4131C41.8219 59.1085 41.8219 58.8691 41.8219 58.6951C41.9089 57.0196 42.2897 55.5836 42.9642 54.3868C43.6387 53.1684 44.5853 52.2436 45.8037 51.6126C47.0222 50.9598 48.4474 50.6335 50.0793 50.6335C51.9071 50.6335 53.4302 51.0142 54.6487 51.7758C55.8889 52.5156 56.8137 53.5382 57.4229 54.8438C58.0539 56.1275 58.3694 57.6071 58.3694 59.2826V60.0332C58.3694 60.2508 58.2824 60.4358 58.1083 60.5881C57.956 60.7404 57.771 60.8165 57.5534 60.8165H46.8808C46.8808 60.8383 46.8808 60.8818 46.8808 60.9471C46.8808 60.9906 46.8808 61.0341 46.8808 61.0776C46.9026 61.7739 47.0331 62.4158 47.2725 63.0033C47.5336 63.569 47.8926 64.026 48.3495 64.3741C48.8282 64.7222 49.3939 64.8963 50.0467 64.8963C50.5907 64.8963 51.0367 64.8201 51.3849 64.6678C51.733 64.5155 52.0159 64.3306 52.2334 64.113C52.4728 63.8954 52.6469 63.7104 52.7557 63.5581C52.9515 63.3406 53.1038 63.21 53.2126 63.1665C53.3431 63.1012 53.539 63.0686 53.8001 63.0686H57.1944C57.412 63.0686 57.5861 63.1338 57.7166 63.2644C57.8689 63.3732 57.9342 63.5364 57.9125 63.754C57.8907 64.1021 57.7058 64.5373 57.3576 65.0595C57.0312 65.5599 56.5417 66.0604 55.8889 66.5608C55.2361 67.0395 54.4202 67.4421 53.441 67.7685C52.4837 68.0948 51.374 68.258 50.112 68.258ZM46.8808 57.8465H53.2779V57.7812C53.2779 56.9979 53.1473 56.3234 52.8862 55.7576C52.6469 55.1702 52.2878 54.7132 51.8091 54.3868C51.3305 54.0605 50.7538 53.8973 50.0793 53.8973C49.4048 53.8973 48.8282 54.0605 48.3495 54.3868C47.8708 54.7132 47.5009 55.1702 47.2398 55.7576C47.0005 56.3234 46.8808 56.9979 46.8808 57.7812V57.8465ZM69.7277 67.9316C68.3787 67.9316 67.2255 67.7141 66.2681 67.2789C65.3107 66.8219 64.5818 66.1257 64.0813 65.19C63.6026 64.2544 63.3633 63.0794 63.3633 61.6651V54.8111H60.8175C60.5782 54.8111 60.3823 54.735 60.23 54.5827C60.0777 54.4304 60.0016 54.2345 60.0016 53.9952V51.7758C60.0016 51.5364 60.0777 51.3406 60.23 51.1883C60.3823 51.036 60.5782 50.9598 60.8175 50.9598H63.3633V45.5746C63.3633 45.3352 63.4394 45.1394 63.5917 44.9871C63.7658 44.8348 63.9616 44.7586 64.1792 44.7586H67.3778C67.6171 44.7586 67.8129 44.8348 67.9652 44.9871C68.1176 45.1394 68.1937 45.3352 68.1937 45.5746V50.9598H72.2735C72.4911 50.9598 72.676 51.036 72.8283 51.1883C72.9806 51.3406 73.0568 51.5364 73.0568 51.7758V53.9952C73.0568 54.2345 72.9806 54.4304 72.8283 54.5827C72.676 54.735 72.4911 54.8111 72.2735 54.8111H68.1937V61.2735C68.1937 62.1003 68.3351 62.7531 68.618 63.2318C68.9226 63.6887 69.4448 63.9172 70.1846 63.9172H72.5672C72.7848 63.9172 72.9698 63.9933 73.1221 64.1456C73.2744 64.2979 73.3505 64.4829 73.3505 64.7005V67.1157C73.3505 67.355 73.2744 67.5509 73.1221 67.7032C72.9698 67.8555 72.7848 67.9316 72.5672 67.9316H69.7277ZM81.1916 68.258C80.0384 68.258 79.0048 68.0404 78.091 67.6053C77.1771 67.1483 76.4482 66.5391 75.9042 65.7775C75.3602 65.016 75.0883 64.1674 75.0883 63.2318C75.0883 61.6869 75.7084 60.4684 76.9486 59.5763C78.2106 58.6842 79.8643 58.0749 81.9096 57.7486L86.1852 57.1284V56.541C86.1852 55.6924 85.9894 55.0396 85.5977 54.5827C85.2061 54.1257 84.5207 53.8973 83.5415 53.8973C82.8235 53.8973 82.2469 54.0387 81.8117 54.3216C81.3765 54.6044 81.0393 54.9743 80.7999 55.4313C80.6258 55.7141 80.3756 55.8556 80.0492 55.8556H76.9486C76.7093 55.8556 76.5243 55.7903 76.3938 55.6597C76.2632 55.5074 76.2088 55.3333 76.2306 55.1375C76.2306 54.7676 76.372 54.3324 76.6549 53.832C76.9377 53.3315 77.3729 52.842 77.9604 52.3633C78.5479 51.8628 79.2986 51.4494 80.2124 51.123C81.1263 50.7967 82.2469 50.6335 83.5741 50.6335C84.9449 50.6335 86.1199 50.7967 87.0991 51.123C88.0782 51.4494 88.8615 51.9063 89.449 52.4938C90.0365 53.0813 90.4717 53.7667 90.7545 54.55C91.0374 55.3116 91.1788 56.1384 91.1788 57.0305V67.1157C91.1788 67.355 91.1027 67.5509 90.9504 67.7032C90.798 67.8555 90.6022 67.9316 90.3629 67.9316H87.1643C86.9468 67.9316 86.7618 67.8555 86.6095 67.7032C86.4572 67.5509 86.381 67.355 86.381 67.1157V65.9081C86.0982 66.3215 85.7174 66.7132 85.2387 67.0831C84.76 67.4312 84.1834 67.7141 83.5089 67.9316C82.8561 68.1492 82.0837 68.258 81.1916 68.258ZM82.4971 64.8637C83.2151 64.8637 83.857 64.7114 84.4227 64.4067C84.9885 64.1021 85.4345 63.6343 85.7609 63.0033C86.0873 62.3723 86.2505 61.5781 86.2505 60.6207V60.0659L83.2151 60.5554C82.0402 60.7513 81.1807 61.045 80.6367 61.4367C80.0928 61.8283 79.8208 62.307 79.8208 62.8727C79.8208 63.2862 79.9404 63.6452 80.1798 63.9498C80.4409 64.2544 80.7782 64.4829 81.1916 64.6352C81.605 64.7875 82.0402 64.8637 82.4971 64.8637ZM101.43 68.258C100.342 68.258 99.3735 68.084 98.5249 67.7358C97.6763 67.3659 96.9583 66.8437 96.3708 66.1692C95.7833 65.4729 95.3373 64.657 95.0327 63.7213C94.728 62.7639 94.5431 61.7086 94.4778 60.5554C94.4561 60.142 94.4452 59.7721 94.4452 59.4457C94.4452 59.0976 94.4561 58.7277 94.4778 58.336C94.5213 57.2046 94.6954 56.1711 95 55.2354C95.3264 54.2998 95.7725 53.4947 96.3382 52.8202C96.9257 52.1239 97.6437 51.5908 98.4923 51.2209C99.3626 50.8293 100.342 50.6335 101.43 50.6335C102.561 50.6335 103.529 50.8293 104.335 51.2209C105.14 51.5908 105.803 52.0804 106.325 52.6897V45.5746C106.325 45.3352 106.402 45.1394 106.554 44.9871C106.706 44.8348 106.902 44.7586 107.141 44.7586H110.503C110.721 44.7586 110.906 44.8348 111.058 44.9871C111.21 45.1394 111.286 45.3352 111.286 45.5746V67.1157C111.286 67.355 111.21 67.5509 111.058 67.7032C110.906 67.8555 110.721 67.9316 110.503 67.9316H107.37C107.152 67.9316 106.967 67.8555 106.815 67.7032C106.663 67.5509 106.587 67.355 106.587 67.1157V66.006C106.043 66.6588 105.357 67.2027 104.53 67.6379C103.704 68.0513 102.67 68.258 101.43 68.258ZM102.931 64.3415C103.736 64.3415 104.378 64.1565 104.857 63.7866C105.357 63.4167 105.716 62.9489 105.934 62.3832C106.173 61.8174 106.304 61.2082 106.325 60.5554C106.369 60.142 106.391 59.7286 106.391 59.3152C106.391 58.9018 106.369 58.4992 106.325 58.1076C106.304 57.4983 106.173 56.9326 105.934 56.4104C105.694 55.8664 105.325 55.4204 104.824 55.0722C104.345 54.7241 103.714 54.55 102.931 54.55C102.104 54.55 101.451 54.735 100.973 55.1049C100.494 55.453 100.146 55.9208 99.9284 56.5083C99.7325 57.0958 99.6129 57.7377 99.5694 58.434C99.5041 59.1085 99.5041 59.783 99.5694 60.4575C99.6129 61.1538 99.7325 61.7957 99.9284 62.3832C100.146 62.9707 100.494 63.4493 100.973 63.8192C101.451 64.1674 102.104 64.3415 102.931 64.3415ZM116.217 67.9316C115.999 67.9316 115.815 67.8555 115.662 67.7032C115.51 67.5509 115.434 67.355 115.434 67.1157V51.7758C115.434 51.5582 115.51 51.3733 115.662 51.2209C115.815 51.0469 115.999 50.9598 116.217 50.9598H119.416C119.633 50.9598 119.818 51.0469 119.97 51.2209C120.145 51.3733 120.232 51.5582 120.232 51.7758V53.0813C120.776 52.4068 121.439 51.8846 122.222 51.5147C123.028 51.1448 123.952 50.9598 124.997 50.9598H126.4C126.618 50.9598 126.803 51.036 126.955 51.1883C127.107 51.3406 127.183 51.5364 127.183 51.7758V54.5827C127.183 54.822 127.107 55.0178 126.955 55.1702C126.803 55.3225 126.618 55.3986 126.4 55.3986H123.528C122.571 55.3986 121.82 55.6706 121.276 56.2146C120.732 56.7368 120.46 57.4875 120.46 58.4666V67.1157C120.46 67.355 120.384 67.5509 120.232 67.7032C120.079 67.8555 119.883 67.9316 119.644 67.9316H116.217ZM130.401 67.9316C130.183 67.9316 129.998 67.8555 129.846 67.7032C129.693 67.5509 129.617 67.355 129.617 67.1157V51.7758C129.617 51.5364 129.693 51.3406 129.846 51.1883C129.998 51.036 130.183 50.9598 130.401 50.9598H133.664C133.904 50.9598 134.1 51.036 134.252 51.1883C134.404 51.3406 134.48 51.5364 134.48 51.7758V67.1157C134.48 67.355 134.404 67.5509 134.252 67.7032C134.1 67.8555 133.904 67.9316 133.664 67.9316H130.401ZM130.303 48.3488C130.085 48.3488 129.9 48.2726 129.748 48.1203C129.596 47.968 129.519 47.7722 129.519 47.5328V44.9218C129.519 44.6825 129.596 44.4866 129.748 44.3343C129.9 44.1602 130.085 44.0732 130.303 44.0732H133.73C133.969 44.0732 134.165 44.1602 134.317 44.3343C134.491 44.4866 134.578 44.6825 134.578 44.9218V47.5328C134.578 47.7722 134.491 47.968 134.317 48.1203C134.165 48.2726 133.969 48.3488 133.73 48.3488H130.303ZM137.856 67.9316C137.66 67.9316 137.486 67.8664 137.333 67.7358C137.203 67.5835 137.138 67.4094 137.138 67.2136C137.138 67.1483 137.148 67.0722 137.17 66.9851C137.214 66.8763 137.268 66.7784 137.333 66.6914L142.849 59.2173L137.79 52.2001C137.725 52.1131 137.671 52.026 137.627 51.939C137.605 51.8519 137.594 51.7649 137.594 51.6779C137.594 51.4821 137.66 51.3189 137.79 51.1883C137.943 51.036 138.117 50.9598 138.313 50.9598H141.707C141.968 50.9598 142.164 51.0251 142.294 51.1557C142.447 51.2862 142.555 51.4059 142.621 51.5147L145.982 56.084L149.344 51.5473C149.431 51.4385 149.54 51.3189 149.671 51.1883C149.801 51.036 150.008 50.9598 150.291 50.9598H153.522C153.718 50.9598 153.881 51.036 154.011 51.1883C154.164 51.3189 154.24 51.4821 154.24 51.6779C154.24 51.7649 154.229 51.8519 154.207 51.939C154.186 52.026 154.131 52.1131 154.044 52.2001L148.887 59.2499L154.468 66.6914C154.534 66.7784 154.577 66.8655 154.599 66.9525C154.642 67.0395 154.664 67.1266 154.664 67.2136C154.664 67.4094 154.588 67.5835 154.436 67.7358C154.305 67.8664 154.142 67.9316 153.946 67.9316H150.389C150.149 67.9316 149.964 67.8772 149.834 67.7685C149.703 67.6379 149.594 67.5182 149.507 67.4094L145.885 62.579L142.196 67.4094C142.131 67.4965 142.033 67.6053 141.903 67.7358C141.772 67.8664 141.576 67.9316 141.315 67.9316H137.856Z" fill="black"/>
</svg>
