<svg width="80" height="80" viewBox="0 0 80 80" fill="none" xmlns="http://www.w3.org/2000/svg">
<circle cx="40" cy="40" r="39.5" fill="#F3F8FF" stroke="#BABABA"/>
<path d="M39.9999 17.9199C27.8242 17.9199 17.9199 27.8242 17.9199 39.9999C17.9199 52.1756 27.8242 62.0799 39.9999 62.0799C52.1756 62.0799 62.0799 52.1756 62.0799 39.9999C62.0799 35.6223 60.7938 31.5417 58.5887 28.1068L57.2743 29.6593C59.0935 32.6871 60.1599 36.2175 60.1599 39.9999C60.1599 51.1158 51.1158 60.1599 39.9999 60.1599C28.8841 60.1599 19.8399 51.1158 19.8399 39.9999C19.8399 28.8841 28.8841 19.8399 39.9999 19.8399C45.2252 19.8399 49.9781 21.8557 53.5637 25.1293L54.8199 23.6462C50.8983 20.0894 45.6975 17.9199 39.9999 17.9199ZM57.5068 23.4437L38.9574 45.3324L31.1499 38.0499L29.8412 39.4543L39.1205 48.1093L58.973 24.6849L57.5068 23.4437Z" fill="#01C9A0"/>
</svg>
