<svg width="25" height="24" viewBox="0 0 25 24" fill="none" xmlns="http://www.w3.org/2000/svg">
<path d="M22.4629 5.15V8.85C22.4629 11.1 21.5629 12 19.3129 12H16.6129C14.3629 12 13.4629 11.1 13.4629 8.85V5.15C13.4629 2.9 14.3629 2 16.6129 2H19.3129C21.5629 2 22.4629 2.9 22.4629 5.15Z" stroke="#FAFAFA" stroke-width="1.5" stroke-linecap="round" stroke-linejoin="round"/>
<path d="M11.4629 15.15V18.85C11.4629 21.1 10.5629 22 8.31289 22H5.61289C3.36289 22 2.46289 21.1 2.46289 18.85V15.15C2.46289 12.9 3.36289 12 5.61289 12H8.31289C10.5629 12 11.4629 12.9 11.4629 15.15Z" stroke="#FAFAFA" stroke-width="1.5" stroke-linecap="round" stroke-linejoin="round"/>
<path d="M22.4629 15C22.4629 18.87 19.3329 22 15.4629 22L16.5129 20.25" stroke="#FAFAFA" stroke-width="1.5" stroke-linecap="round" stroke-linejoin="round"/>
<path d="M2.46289 9C2.46289 5.13 5.59289 2 9.46289 2L8.41289 3.75" stroke="#FAFAFA" stroke-width="1.5" stroke-linecap="round" stroke-linejoin="round"/>
</svg>
