<svg width="212" height="133" viewBox="0 0 212 133" fill="none" xmlns="http://www.w3.org/2000/svg">
<path d="M25.0077 108.148C24.8865 108.038 24.854 107.936 24.7436 107.86C17.0824 102.438 16.4887 94.9417 21.0145 85.9949C24.4451 79.2638 30.6184 72.5137 38.8569 65.7746C53.5349 53.6553 71.9753 43.0935 94.0764 34.3084C110.229 27.8736 126.702 22.978 143.47 20.0775C153.154 18.3977 162.244 17.5425 170.524 17.9163C178.971 18.2741 185.508 19.9142 189.868 23.0715C190.409 23.4207 191.029 23.7451 191.648 24.0694C197.142 27.0132 199.807 31.0484 199.944 36.0415C200.1 42.7073 196.21 49.8836 188.931 57.4726C188.36 58.1031 187.71 58.7585 187.228 59.3979C176.626 72.7133 159.707 84.5418 136.574 94.6645C109.44 106.514 82.3598 113.161 55.6799 114.344C44.4169 114.85 34.4636 114.078 26.6012 111.519C12.9914 107.104 9.33683 99.1693 14.6353 88.0725C17.9685 81.0369 24.2998 73.975 32.6745 66.8565C46.0581 55.5243 62.9963 45.3684 82.6014 36.2997C93.3792 31.3228 104.451 26.9979 115.995 23.343C123.087 21.0748 130.265 19.0775 137.437 17.8657C141.262 17.202 144.918 16.8161 148.147 16.977C149.28 17.0253 150.278 17.1912 151.265 17.3232C151.808 17.4105 152.295 17.5905 151.724 18.221C151.39 18.253 150.99 18.3438 150.724 18.317C146.046 17.3881 140.177 18.1085 133.949 19.3169C126.843 20.7317 119.775 22.8057 112.738 25.2431C84.0539 35.2008 59.6455 47.7833 39.7572 62.9496C29.891 70.5078 22.5445 78.1555 18.2957 85.8198C15.0944 91.6567 14.3631 96.8901 16.7468 101.388C18.1237 104.082 20.7042 106.242 24.1765 107.967C24.2869 108.043 24.4752 108.095 24.6527 108.113C24.6744 108.18 24.8302 108.131 25.0077 108.148ZM197.03 37.9434C196.268 38.7841 196.307 39.4432 196.814 39.9528C196.69 40.1042 196.4 40.2715 196.355 40.398C196.184 40.9377 196.18 41.4614 196.097 42.0101C196.175 41.9852 196.253 41.9602 196.342 41.9692C196.47 41.2941 196.608 40.6528 196.814 39.9528C196.863 39.3026 196.902 38.6186 197.03 37.9434C196.922 37.605 196.902 37.2754 196.883 36.9459C196.727 36.9957 196.649 37.0206 196.493 37.0705C196.679 37.384 196.855 37.6637 197.03 37.9434ZM115.6 29.6257C100.025 34.6444 86.4982 40.426 73.9628 47.1589C61.8625 53.6408 51.5352 60.5629 43.5458 68.0805C38.0066 73.322 33.9893 78.4871 32.1604 83.512C30.6043 87.778 30.7842 91.5634 33.2565 94.7275C35.8934 98.1375 41.0736 100.1 48.2064 100.915C60.9523 102.36 74.7285 102.73 89.5351 102.023C96.7998 101.64 104.223 100.945 112.018 99.5337C113.797 99.1885 115.488 98.8343 117.258 98.1934C127.504 94.5061 137.242 90.3092 146.464 85.569C161.438 77.8692 174.054 69.5064 183.755 60.3592C184.617 59.5613 185.301 58.7456 185.907 57.9548C188.288 54.6562 190.013 51.4554 191.238 48.3027C194.153 40.7663 194.376 33.9421 190.793 28.1111C189.665 26.1959 187.734 24.7242 184.599 23.7866C178.408 21.8866 171.009 21.0444 162.314 21.2513C147.122 21.5584 131.107 24.6657 115.6 29.6257ZM78.5387 42.9344C78.5279 42.9006 78.4283 42.8578 78.4175 42.8239C77.8157 43.091 77.2248 43.392 76.623 43.6591C69.878 47.0103 63.6093 50.5077 57.6825 54.2688C44.7685 62.5034 34.517 71.0056 27.8156 79.8648C22.6857 86.6543 20.3245 92.9687 21.7774 98.5855C23.4338 105.107 29.6057 109.364 41.1068 110.946C47.0295 111.738 53.7921 111.665 60.981 111.044C74.8589 109.852 89.1068 106.862 103.71 102.564C105.279 102.099 106.749 101.592 108.307 101.094C107.941 101.024 107.53 101.081 107.119 101.138C103.751 101.618 100.326 102.191 97.0921 102.554C76.8998 104.684 59.1276 104.175 42.812 102.043C40.1278 101.708 38.002 100.97 36.0104 100.115C29.5832 97.2082 27.455 92.7028 28.4114 87.0989C29.4392 80.9125 33.9782 74.4239 41.039 67.763C49.9246 59.2872 61.7239 51.5958 75.584 44.4391C76.6209 43.9209 77.5798 43.4277 78.5387 42.9344ZM174.312 70.5806C174.212 70.5378 174.034 70.52 173.935 70.4772C160.04 80.4804 143.769 89.2292 124.977 96.5453C106.264 103.836 87.3903 109.015 68.2913 111.878C72.3241 111.595 76.437 111.026 80.6841 110.339C96.5945 107.713 112.332 103.202 127.904 97.1016C143.02 91.1849 156.179 84.2526 167.238 76.1264C169.662 74.3063 171.898 72.4345 174.312 70.5806ZM196.759 35.7541C196.681 35.7791 196.681 35.7791 196.759 35.7541C196.725 35.9144 196.757 36.016 196.8 36.1514L196.878 36.1264C196.846 36.0249 196.803 35.8895 196.759 35.7541Z" fill="#FF9900"/>
<path d="M16.9735 67.9326C16.7559 67.9326 16.5601 67.8564 16.386 67.7041C16.2337 67.5518 16.1576 67.356 16.1576 67.1166V45.9019C16.1576 45.6625 16.2337 45.4667 16.386 45.3144C16.5601 45.1621 16.7559 45.0859 16.9735 45.0859H20.0089C20.3352 45.0859 20.5746 45.1729 20.7269 45.347C20.901 45.5211 21.0206 45.6516 21.0859 45.7387L27.0913 56.803L33.162 45.7387C33.2055 45.6516 33.3034 45.5211 33.4557 45.347C33.6298 45.1729 33.88 45.0859 34.2064 45.0859H37.2418C37.4811 45.0859 37.6769 45.1621 37.8292 45.3144C37.9816 45.4667 38.0577 45.6625 38.0577 45.9019V67.1166C38.0577 67.356 37.9816 67.5518 37.8292 67.7041C37.6769 67.8564 37.4811 67.9326 37.2418 67.9326H33.9127C33.6951 67.9326 33.5101 67.8564 33.3578 67.7041C33.2055 67.5518 33.1294 67.356 33.1294 67.1166V53.9308L28.9843 61.6987C28.8755 61.8945 28.7341 62.0686 28.56 62.2209C28.386 62.3732 28.1575 62.4494 27.8746 62.4494H26.3406C26.0578 62.4494 25.8293 62.3732 25.6552 62.2209C25.4812 62.0686 25.3397 61.8945 25.231 61.6987L21.0859 53.9308V67.1166C21.0859 67.356 21.0098 67.5518 20.8574 67.7041C20.7051 67.8564 20.5202 67.9326 20.3026 67.9326H16.9735ZM50.1121 68.2589C47.6099 68.2589 45.619 67.5627 44.1394 66.1701C42.6815 64.7775 41.9091 62.754 41.8221 60.0994C41.8221 59.9253 41.8221 59.6969 41.8221 59.414C41.8221 59.1094 41.8221 58.8701 41.8221 58.696C41.9091 57.0206 42.2899 55.5845 42.9644 54.3878C43.6389 53.1693 44.5854 52.2445 45.8039 51.6135C47.0224 50.9608 48.4476 50.6344 50.0795 50.6344C51.9072 50.6344 53.4303 51.0152 54.6488 51.7767C55.8891 52.5165 56.8138 53.5392 57.4231 54.8447C58.0541 56.1285 58.3696 57.608 58.3696 59.2835V60.0341C58.3696 60.2517 58.2825 60.4367 58.1085 60.589C57.9561 60.7413 57.7712 60.8175 57.5536 60.8175H46.881C46.881 60.8392 46.881 60.8827 46.881 60.948C46.881 60.9915 46.881 61.035 46.881 61.0786C46.9027 61.7748 47.0333 62.4167 47.2726 63.0042C47.5337 63.5699 47.8927 64.0269 48.3497 64.375C48.8284 64.7231 49.3941 64.8972 50.0469 64.8972C50.5908 64.8972 51.0369 64.8211 51.385 64.6687C51.7332 64.5164 52.016 64.3315 52.2336 64.1139C52.4729 63.8963 52.647 63.7114 52.7558 63.5591C52.9516 63.3415 53.1039 63.2109 53.2127 63.1674C53.3433 63.1021 53.5391 63.0695 53.8002 63.0695H57.1946C57.4122 63.0695 57.5862 63.1348 57.7168 63.2653C57.8691 63.3741 57.9344 63.5373 57.9126 63.7549C57.8909 64.103 57.7059 64.5382 57.3578 65.0604C57.0314 65.5609 56.5418 66.0613 55.8891 66.5618C55.2363 67.0404 54.4204 67.443 53.4412 67.7694C52.4838 68.0957 51.3741 68.2589 50.1121 68.2589ZM46.881 57.8474H53.278V57.7821C53.278 56.9988 53.1475 56.3243 52.8864 55.7586C52.647 55.1711 52.288 54.7141 51.8093 54.3878C51.3306 54.0614 50.754 53.8982 50.0795 53.8982C49.405 53.8982 48.8284 54.0614 48.3497 54.3878C47.871 54.7141 47.5011 55.1711 47.24 55.7586C47.0006 56.3243 46.881 56.9988 46.881 57.7821V57.8474ZM69.7279 67.9326C68.3788 67.9326 67.2256 67.715 66.2682 67.2798C65.3108 66.8229 64.5819 66.1266 64.0815 65.191C63.6028 64.2553 63.3634 63.0804 63.3634 61.666V54.8121H60.8177C60.5783 54.8121 60.3825 54.7359 60.2302 54.5836C60.0779 54.4313 60.0017 54.2354 60.0017 53.9961V51.7767C60.0017 51.5374 60.0779 51.3415 60.2302 51.1892C60.3825 51.0369 60.5783 50.9608 60.8177 50.9608H63.3634V45.5755C63.3634 45.3361 63.4396 45.1403 63.5919 44.988C63.766 44.8357 63.9618 44.7595 64.1794 44.7595H67.3779C67.6173 44.7595 67.8131 44.8357 67.9654 44.988C68.1177 45.1403 68.1939 45.3361 68.1939 45.5755V50.9608H72.2736C72.4912 50.9608 72.6762 51.0369 72.8285 51.1892C72.9808 51.3415 73.0569 51.5374 73.0569 51.7767V53.9961C73.0569 54.2354 72.9808 54.4313 72.8285 54.5836C72.6762 54.7359 72.4912 54.8121 72.2736 54.8121H68.1939V61.2744C68.1939 62.1012 68.3353 62.754 68.6182 63.2327C68.9228 63.6896 69.445 63.9181 70.1848 63.9181H72.5674C72.785 63.9181 72.9699 63.9942 73.1222 64.1465C73.2745 64.2989 73.3507 64.4838 73.3507 64.7014V67.1166C73.3507 67.356 73.2745 67.5518 73.1222 67.7041C72.9699 67.8564 72.785 67.9326 72.5674 67.9326H69.7279ZM81.1917 68.2589C80.0385 68.2589 79.005 68.0413 78.0911 67.6062C77.1772 67.1492 76.4483 66.54 75.9044 65.7784C75.3604 65.0169 75.0884 64.1683 75.0884 63.2327C75.0884 61.6878 75.7085 60.4693 76.9488 59.5772C78.2108 58.6851 79.8644 58.0759 81.9098 57.7495L86.1854 57.1294V56.5419C86.1854 55.6933 85.9895 55.0405 85.5979 54.5836C85.2062 54.1267 84.5208 53.8982 83.5417 53.8982C82.8236 53.8982 82.247 54.0396 81.8119 54.3225C81.3767 54.6053 81.0394 54.9752 80.8001 55.4322C80.626 55.715 80.3758 55.8565 80.0494 55.8565H76.9488C76.7094 55.8565 76.5245 55.7912 76.3939 55.6606C76.2634 55.5083 76.209 55.3343 76.2307 55.1384C76.2307 54.7685 76.3722 54.3334 76.655 53.8329C76.9379 53.3325 77.3731 52.8429 77.9606 52.3642C78.548 51.8637 79.2987 51.4503 80.2126 51.1239C81.1265 50.7976 82.247 50.6344 83.5743 50.6344C84.9451 50.6344 86.1201 50.7976 87.0992 51.1239C88.0784 51.4503 88.8617 51.9073 89.4492 52.4947C90.0366 53.0822 90.4718 53.7676 90.7547 54.5509C91.0375 55.3125 91.179 56.1393 91.179 57.0314V67.1166C91.179 67.356 91.1028 67.5518 90.9505 67.7041C90.7982 67.8564 90.6024 67.9326 90.363 67.9326H87.1645C86.9469 67.9326 86.762 67.8564 86.6097 67.7041C86.4573 67.5518 86.3812 67.356 86.3812 67.1166V65.909C86.0983 66.3224 85.7175 66.7141 85.2389 67.084C84.7602 67.4321 84.1836 67.715 83.509 67.9326C82.8563 68.1501 82.0838 68.2589 81.1917 68.2589ZM82.4973 64.8646C83.2153 64.8646 83.8572 64.7123 84.4229 64.4076C84.9886 64.103 85.4347 63.6352 85.7611 63.0042C86.0874 62.3732 86.2506 61.579 86.2506 60.6216V60.0668L83.2153 60.5564C82.0403 60.7522 81.1809 61.0459 80.6369 61.4376C80.0929 61.8292 79.8209 62.3079 79.8209 62.8737C79.8209 63.2871 79.9406 63.6461 80.18 63.9507C80.4411 64.2553 80.7783 64.4838 81.1917 64.6361C81.6051 64.7884 82.0403 64.8646 82.4973 64.8646ZM101.43 68.2589C100.342 68.2589 99.3737 68.0849 98.5251 67.7367C97.6765 67.3668 96.9585 66.8446 96.371 66.1701C95.7835 65.4738 95.3374 64.6579 95.0328 63.7222C94.7282 62.7649 94.5433 61.7096 94.478 60.5564C94.4562 60.1429 94.4453 59.773 94.4453 59.4467C94.4453 59.0985 94.4562 58.7286 94.478 58.337C94.5215 57.2055 94.6956 56.172 95.0002 55.2363C95.3266 54.3007 95.7726 53.4956 96.3383 52.8211C96.9258 52.1248 97.6439 51.5918 98.4925 51.2219C99.3628 50.8302 100.342 50.6344 101.43 50.6344C102.561 50.6344 103.53 50.8302 104.335 51.2219C105.14 51.5918 105.803 52.0813 106.326 52.6906V45.5755C106.326 45.3361 106.402 45.1403 106.554 44.988C106.706 44.8357 106.902 44.7595 107.142 44.7595H110.503C110.721 44.7595 110.906 44.8357 111.058 44.988C111.21 45.1403 111.287 45.3361 111.287 45.5755V67.1166C111.287 67.356 111.21 67.5518 111.058 67.7041C110.906 67.8564 110.721 67.9326 110.503 67.9326H107.37C107.152 67.9326 106.967 67.8564 106.815 67.7041C106.663 67.5518 106.587 67.356 106.587 67.1166V66.0069C106.043 66.6597 105.357 67.2036 104.531 67.6388C103.704 68.0522 102.67 68.2589 101.43 68.2589ZM102.931 64.3424C103.736 64.3424 104.378 64.1574 104.857 63.7875C105.357 63.4176 105.716 62.9498 105.934 62.3841C106.173 61.8184 106.304 61.2091 106.326 60.5564C106.369 60.1429 106.391 59.7295 106.391 59.3161C106.391 58.9027 106.369 58.5002 106.326 58.1085C106.304 57.4993 106.173 56.9335 105.934 56.4113C105.695 55.8673 105.325 55.4213 104.824 55.0732C104.346 54.725 103.715 54.5509 102.931 54.5509C102.104 54.5509 101.452 54.7359 100.973 55.1058C100.494 55.4539 100.146 55.9217 99.9285 56.5092C99.7327 57.0967 99.613 57.7386 99.5695 58.4349C99.5042 59.1094 99.5042 59.7839 99.5695 60.4584C99.613 61.1547 99.7327 61.7966 99.9285 62.3841C100.146 62.9716 100.494 63.4503 100.973 63.8202C101.452 64.1683 102.104 64.3424 102.931 64.3424ZM116.217 67.9326C116 67.9326 115.815 67.8564 115.662 67.7041C115.51 67.5518 115.434 67.356 115.434 67.1166V51.7767C115.434 51.5591 115.51 51.3742 115.662 51.2219C115.815 51.0478 116 50.9608 116.217 50.9608H119.416C119.633 50.9608 119.818 51.0478 119.971 51.2219C120.145 51.3742 120.232 51.5591 120.232 51.7767V53.0822C120.776 52.4077 121.439 51.8855 122.223 51.5156C123.028 51.1457 123.952 50.9608 124.997 50.9608H126.4C126.618 50.9608 126.803 51.0369 126.955 51.1892C127.107 51.3415 127.184 51.5374 127.184 51.7767V54.5836C127.184 54.8229 127.107 55.0188 126.955 55.1711C126.803 55.3234 126.618 55.3995 126.4 55.3995H123.528C122.571 55.3995 121.82 55.6715 121.276 56.2155C120.732 56.7377 120.46 57.4884 120.46 58.4675V67.1166C120.46 67.356 120.384 67.5518 120.232 67.7041C120.079 67.8564 119.884 67.9326 119.644 67.9326H116.217ZM130.401 67.9326C130.183 67.9326 129.998 67.8564 129.846 67.7041C129.694 67.5518 129.617 67.356 129.617 67.1166V51.7767C129.617 51.5374 129.694 51.3415 129.846 51.1892C129.998 51.0369 130.183 50.9608 130.401 50.9608H133.665C133.904 50.9608 134.1 51.0369 134.252 51.1892C134.404 51.3415 134.481 51.5374 134.481 51.7767V67.1166C134.481 67.356 134.404 67.5518 134.252 67.7041C134.1 67.8564 133.904 67.9326 133.665 67.9326H130.401ZM130.303 48.3497C130.085 48.3497 129.9 48.2736 129.748 48.1212C129.596 47.9689 129.52 47.7731 129.52 47.5338V44.9227C129.52 44.6834 129.596 44.4875 129.748 44.3352C129.9 44.1612 130.085 44.0741 130.303 44.0741H133.73C133.969 44.0741 134.165 44.1612 134.317 44.3352C134.491 44.4875 134.578 44.6834 134.578 44.9227V47.5338C134.578 47.7731 134.491 47.9689 134.317 48.1212C134.165 48.2736 133.969 48.3497 133.73 48.3497H130.303ZM137.856 67.9326C137.66 67.9326 137.486 67.8673 137.334 67.7367C137.203 67.5844 137.138 67.4103 137.138 67.2145C137.138 67.1492 137.149 67.0731 137.17 66.9861C137.214 66.8773 137.268 66.7793 137.334 66.6923L142.849 59.2182L137.79 52.201C137.725 52.114 137.671 52.0269 137.627 51.9399C137.606 51.8529 137.595 51.7658 137.595 51.6788C137.595 51.483 137.66 51.3198 137.79 51.1892C137.943 51.0369 138.117 50.9608 138.313 50.9608H141.707C141.968 50.9608 142.164 51.026 142.295 51.1566C142.447 51.2871 142.556 51.4068 142.621 51.5156L145.983 56.0849L149.344 51.5482C149.431 51.4394 149.54 51.3198 149.671 51.1892C149.801 51.0369 150.008 50.9608 150.291 50.9608H153.522C153.718 50.9608 153.881 51.0369 154.012 51.1892C154.164 51.3198 154.24 51.483 154.24 51.6788C154.24 51.7658 154.229 51.8529 154.207 51.9399C154.186 52.0269 154.131 52.114 154.044 52.201L148.887 59.2508L154.469 66.6923C154.534 66.7793 154.577 66.8664 154.599 66.9534C154.643 67.0404 154.664 67.1275 154.664 67.2145C154.664 67.4103 154.588 67.5844 154.436 67.7367C154.305 67.8673 154.142 67.9326 153.946 67.9326H150.389C150.149 67.9326 149.964 67.8782 149.834 67.7694C149.703 67.6388 149.595 67.5191 149.508 67.4103L145.885 62.5799L142.197 67.4103C142.131 67.4974 142.033 67.6062 141.903 67.7367C141.772 67.8673 141.577 67.9326 141.315 67.9326H137.856Z" fill="black"/>
</svg>
