<svg width="25" height="25" viewBox="0 0 25 25" fill="none" xmlns="http://www.w3.org/2000/svg">
<path d="M17.3477 6.60742C19.3477 7.99742 20.7277 10.2074 21.0077 12.7574" stroke="#FAFAFA" stroke-width="1.5" stroke-linecap="round" stroke-linejoin="round"/>
<path d="M3.87695 12.8082C4.13695 10.2682 5.49695 8.0582 7.47695 6.6582" stroke="#FAFAFA" stroke-width="1.5" stroke-linecap="round" stroke-linejoin="round"/>
<path d="M8.57617 21.377C9.73617 21.967 11.0562 22.297 12.4462 22.297C13.7862 22.297 15.0462 21.997 16.1762 21.447" stroke="#FAFAFA" stroke-width="1.5" stroke-linecap="round" stroke-linejoin="round"/>
<path d="M12.446 8.13812C13.9814 8.13812 15.226 6.89348 15.226 5.35812C15.226 3.82277 13.9814 2.57812 12.446 2.57812C10.9107 2.57812 9.66602 3.82277 9.66602 5.35812C9.66602 6.89348 10.9107 8.13812 12.446 8.13812Z" stroke="#FAFAFA" stroke-width="1.5" stroke-linecap="round" stroke-linejoin="round"/>
<path d="M5.2175 20.3569C6.75285 20.3569 7.9975 19.1122 7.9975 17.5769C7.9975 16.0415 6.75285 14.7969 5.2175 14.7969C3.68215 14.7969 2.4375 16.0415 2.4375 17.5769C2.4375 19.1122 3.68215 20.3569 5.2175 20.3569Z" stroke="#FAFAFA" stroke-width="1.5" stroke-linecap="round" stroke-linejoin="round"/>
<path d="M19.5573 20.3569C21.0927 20.3569 22.3373 19.1122 22.3373 17.5769C22.3373 16.0415 21.0927 14.7969 19.5573 14.7969C18.022 14.7969 16.7773 16.0415 16.7773 17.5769C16.7773 19.1122 18.022 20.3569 19.5573 20.3569Z" stroke="#FAFAFA" stroke-width="1.5" stroke-linecap="round" stroke-linejoin="round"/>
</svg>
