<svg width="28" height="28" viewBox="0 0 28 28" fill="none" xmlns="http://www.w3.org/2000/svg">
<path d="M12.2385 2.60133L6.41685 4.79466C5.07518 5.29633 3.97852 6.88299 3.97852 8.30633V16.9747C3.97852 18.3513 4.88852 20.1597 5.99685 20.988L11.0135 24.733C12.6585 25.9697 15.3652 25.9697 17.0102 24.733L22.0268 20.988C23.1352 20.1597 24.0452 18.3513 24.0452 16.9747V8.30633C24.0452 6.87133 22.9485 5.28466 21.6068 4.78299L15.7852 2.60133C14.7935 2.23966 13.2068 2.23966 12.2385 2.60133Z" stroke="#010F23" stroke-width="1.5" stroke-linecap="round" stroke-linejoin="round"/>
<path d="M13.9993 14.5827C15.288 14.5827 16.3327 13.538 16.3327 12.2493C16.3327 10.9607 15.288 9.91602 13.9993 9.91602C12.7107 9.91602 11.666 10.9607 11.666 12.2493C11.666 13.538 12.7107 14.5827 13.9993 14.5827Z" stroke="#010F23" stroke-width="1.5" stroke-miterlimit="10" stroke-linecap="round" stroke-linejoin="round"/>
<path d="M14 14.584V18.084" stroke="#010F23" stroke-width="1.5" stroke-miterlimit="10" stroke-linecap="round" stroke-linejoin="round"/>
</svg>
