<svg width="25" height="24" viewBox="0 0 25 24" fill="none" xmlns="http://www.w3.org/2000/svg">
<path d="M21.9629 5.98047C18.6329 5.65047 15.2829 5.48047 11.9429 5.48047C9.96289 5.48047 7.98289 5.58047 6.00289 5.78047L3.96289 5.98047" stroke="#FAFAFA" stroke-width="1.5" stroke-linecap="round" stroke-linejoin="round"/>
<path d="M9.46289 4.97L9.68289 3.66C9.84289 2.71 9.96289 2 11.6529 2H14.2729C15.9629 2 16.0929 2.75 16.2429 3.67L16.4629 4.97" stroke="#FAFAFA" stroke-width="1.5" stroke-linecap="round" stroke-linejoin="round"/>
<path d="M19.8133 9.14062L19.1633 19.2106C19.0533 20.7806 18.9633 22.0006 16.1733 22.0006H9.75328C6.96328 22.0006 6.87328 20.7806 6.76328 19.2106L6.11328 9.14062" stroke="#FAFAFA" stroke-width="1.5" stroke-linecap="round" stroke-linejoin="round"/>
<path d="M11.293 16.5H14.623" stroke="#FAFAFA" stroke-width="1.5" stroke-linecap="round" stroke-linejoin="round"/>
<path d="M10.4629 12.5H15.4629" stroke="#FAFAFA" stroke-width="1.5" stroke-linecap="round" stroke-linejoin="round"/>
</svg>
